<mxfile host="Electron" modified="2024-09-16T13:57:00.779Z" agent="Mozilla/5.0 (Windows NT 10.0; Win64; x64) AppleWebKit/537.36 (KHTML, like Gecko) draw.io/22.1.11 Chrome/114.0.5735.289 Electron/25.9.8 Safari/537.36" etag="JercQbPYPYbQCXpE8Z1N" version="22.1.11" type="device">
  <diagram id="C5RBs43oDa-KdzZeNtuy" name="Page-1">
    <mxGraphModel dx="780" dy="504" grid="1" gridSize="10" guides="1" tooltips="1" connect="1" arrows="1" fold="1" page="1" pageScale="1" pageWidth="827" pageHeight="1169" math="0" shadow="0">
      <root>
        <mxCell id="WIyWlLk6GJQsqaUBKTNV-0" />
        <mxCell id="WIyWlLk6GJQsqaUBKTNV-1" parent="WIyWlLk6GJQsqaUBKTNV-0" />
        <mxCell id="Ofe4joqdZ_SqyxlnEofb-2" style="edgeStyle=orthogonalEdgeStyle;rounded=0;orthogonalLoop=1;jettySize=auto;html=1;exitX=0.5;exitY=1;exitDx=0;exitDy=0;" parent="WIyWlLk6GJQsqaUBKTNV-1" source="Ofe4joqdZ_SqyxlnEofb-0" edge="1">
          <mxGeometry relative="1" as="geometry">
            <mxPoint x="354" y="230" as="targetPoint" />
          </mxGeometry>
        </mxCell>
        <mxCell id="Ofe4joqdZ_SqyxlnEofb-0" value="输入n" style="rounded=0;whiteSpace=wrap;html=1;fillColor=none;" parent="WIyWlLk6GJQsqaUBKTNV-1" vertex="1">
          <mxGeometry x="294" y="160" width="120" height="30" as="geometry" />
        </mxCell>
        <mxCell id="Ofe4joqdZ_SqyxlnEofb-5" style="edgeStyle=orthogonalEdgeStyle;rounded=0;orthogonalLoop=1;jettySize=auto;html=1;exitX=0.5;exitY=1;exitDx=0;exitDy=0;entryX=0.5;entryY=0;entryDx=0;entryDy=0;" parent="WIyWlLk6GJQsqaUBKTNV-1" source="Ofe4joqdZ_SqyxlnEofb-3" target="Ofe4joqdZ_SqyxlnEofb-4" edge="1">
          <mxGeometry relative="1" as="geometry" />
        </mxCell>
        <mxCell id="Ofe4joqdZ_SqyxlnEofb-3" value="i = 2" style="rounded=0;whiteSpace=wrap;html=1;fillColor=none;" parent="WIyWlLk6GJQsqaUBKTNV-1" vertex="1">
          <mxGeometry x="294" y="230" width="120" height="30" as="geometry" />
        </mxCell>
        <mxCell id="Ofe4joqdZ_SqyxlnEofb-8" style="edgeStyle=orthogonalEdgeStyle;rounded=0;orthogonalLoop=1;jettySize=auto;html=1;exitX=0;exitY=0.5;exitDx=0;exitDy=0;entryX=0.5;entryY=1;entryDx=0;entryDy=0;" parent="WIyWlLk6GJQsqaUBKTNV-1" source="Ofe4joqdZ_SqyxlnEofb-11" target="Ofe4joqdZ_SqyxlnEofb-7" edge="1">
          <mxGeometry relative="1" as="geometry">
            <Array as="points">
              <mxPoint x="228" y="430" />
            </Array>
          </mxGeometry>
        </mxCell>
        <mxCell id="Ofe4joqdZ_SqyxlnEofb-12" style="edgeStyle=orthogonalEdgeStyle;rounded=0;orthogonalLoop=1;jettySize=auto;html=1;exitX=0.5;exitY=1;exitDx=0;exitDy=0;entryX=0.5;entryY=0;entryDx=0;entryDy=0;" parent="WIyWlLk6GJQsqaUBKTNV-1" source="Ofe4joqdZ_SqyxlnEofb-4" target="Ofe4joqdZ_SqyxlnEofb-11" edge="1">
          <mxGeometry relative="1" as="geometry" />
        </mxCell>
        <mxCell id="Ofe4joqdZ_SqyxlnEofb-19" style="edgeStyle=orthogonalEdgeStyle;rounded=0;orthogonalLoop=1;jettySize=auto;html=1;exitX=1;exitY=0.5;exitDx=0;exitDy=0;entryX=0.5;entryY=0;entryDx=0;entryDy=0;" parent="WIyWlLk6GJQsqaUBKTNV-1" source="Ofe4joqdZ_SqyxlnEofb-4" target="Ofe4joqdZ_SqyxlnEofb-18" edge="1">
          <mxGeometry relative="1" as="geometry">
            <Array as="points">
              <mxPoint x="480" y="330" />
              <mxPoint x="480" y="490" />
              <mxPoint x="354" y="490" />
            </Array>
          </mxGeometry>
        </mxCell>
        <mxCell id="Ofe4joqdZ_SqyxlnEofb-4" value="i &amp;lt;= n/2?" style="rhombus;whiteSpace=wrap;html=1;fillColor=none;" parent="WIyWlLk6GJQsqaUBKTNV-1" vertex="1">
          <mxGeometry x="299" y="310" width="110" height="40" as="geometry" />
        </mxCell>
        <mxCell id="Ofe4joqdZ_SqyxlnEofb-9" style="edgeStyle=orthogonalEdgeStyle;rounded=0;orthogonalLoop=1;jettySize=auto;html=1;exitX=0.5;exitY=0;exitDx=0;exitDy=0;entryX=0;entryY=0.5;entryDx=0;entryDy=0;" parent="WIyWlLk6GJQsqaUBKTNV-1" source="Ofe4joqdZ_SqyxlnEofb-7" target="Ofe4joqdZ_SqyxlnEofb-4" edge="1">
          <mxGeometry relative="1" as="geometry">
            <Array as="points">
              <mxPoint x="228" y="330" />
            </Array>
          </mxGeometry>
        </mxCell>
        <mxCell id="Ofe4joqdZ_SqyxlnEofb-7" value="i = i + 1" style="rounded=0;whiteSpace=wrap;html=1;fillColor=none;" parent="WIyWlLk6GJQsqaUBKTNV-1" vertex="1">
          <mxGeometry x="180" y="360" width="96" height="30" as="geometry" />
        </mxCell>
        <mxCell id="Ofe4joqdZ_SqyxlnEofb-10" value="假" style="text;html=1;strokeColor=none;fillColor=none;align=center;verticalAlign=middle;whiteSpace=wrap;rounded=0;" parent="WIyWlLk6GJQsqaUBKTNV-1" vertex="1">
          <mxGeometry x="239" y="400" width="60" height="30" as="geometry" />
        </mxCell>
        <mxCell id="Ofe4joqdZ_SqyxlnEofb-17" style="edgeStyle=orthogonalEdgeStyle;rounded=0;orthogonalLoop=1;jettySize=auto;html=1;exitX=0.5;exitY=1;exitDx=0;exitDy=0;" parent="WIyWlLk6GJQsqaUBKTNV-1" source="Ofe4joqdZ_SqyxlnEofb-11" edge="1">
          <mxGeometry relative="1" as="geometry">
            <mxPoint x="354" y="490" as="targetPoint" />
          </mxGeometry>
        </mxCell>
        <mxCell id="Ofe4joqdZ_SqyxlnEofb-11" value="n%i == 0?" style="rhombus;whiteSpace=wrap;html=1;fillColor=none;" parent="WIyWlLk6GJQsqaUBKTNV-1" vertex="1">
          <mxGeometry x="299" y="410" width="110" height="40" as="geometry" />
        </mxCell>
        <mxCell id="Ofe4joqdZ_SqyxlnEofb-14" value="真" style="text;html=1;strokeColor=none;fillColor=none;align=center;verticalAlign=middle;whiteSpace=wrap;rounded=0;" parent="WIyWlLk6GJQsqaUBKTNV-1" vertex="1">
          <mxGeometry x="340" y="360" width="60" height="30" as="geometry" />
        </mxCell>
        <mxCell id="Ofe4joqdZ_SqyxlnEofb-16" value="假" style="text;html=1;strokeColor=none;fillColor=none;align=center;verticalAlign=middle;whiteSpace=wrap;rounded=0;" parent="WIyWlLk6GJQsqaUBKTNV-1" vertex="1">
          <mxGeometry x="420" y="310" width="60" height="30" as="geometry" />
        </mxCell>
        <mxCell id="Ofe4joqdZ_SqyxlnEofb-24" style="edgeStyle=orthogonalEdgeStyle;rounded=0;orthogonalLoop=1;jettySize=auto;html=1;exitX=1;exitY=0.5;exitDx=0;exitDy=0;" parent="WIyWlLk6GJQsqaUBKTNV-1" source="Ofe4joqdZ_SqyxlnEofb-18" edge="1">
          <mxGeometry relative="1" as="geometry">
            <mxPoint x="430" y="600" as="targetPoint" />
          </mxGeometry>
        </mxCell>
        <mxCell id="Ofe4joqdZ_SqyxlnEofb-25" style="edgeStyle=orthogonalEdgeStyle;rounded=0;orthogonalLoop=1;jettySize=auto;html=1;exitX=0;exitY=0.5;exitDx=0;exitDy=0;" parent="WIyWlLk6GJQsqaUBKTNV-1" source="Ofe4joqdZ_SqyxlnEofb-18" edge="1">
          <mxGeometry relative="1" as="geometry">
            <mxPoint x="280" y="600" as="targetPoint" />
          </mxGeometry>
        </mxCell>
        <mxCell id="Ofe4joqdZ_SqyxlnEofb-18" value="i &amp;gt; n/2?" style="rhombus;whiteSpace=wrap;html=1;fillColor=none;" parent="WIyWlLk6GJQsqaUBKTNV-1" vertex="1">
          <mxGeometry x="314" y="530" width="80" height="40" as="geometry" />
        </mxCell>
        <mxCell id="Ofe4joqdZ_SqyxlnEofb-20" value="真" style="text;html=1;strokeColor=none;fillColor=none;align=center;verticalAlign=middle;whiteSpace=wrap;rounded=0;" parent="WIyWlLk6GJQsqaUBKTNV-1" vertex="1">
          <mxGeometry x="314" y="450" width="60" height="30" as="geometry" />
        </mxCell>
        <mxCell id="Ofe4joqdZ_SqyxlnEofb-31" style="edgeStyle=orthogonalEdgeStyle;rounded=0;orthogonalLoop=1;jettySize=auto;html=1;exitX=0.5;exitY=1;exitDx=0;exitDy=0;" parent="WIyWlLk6GJQsqaUBKTNV-1" source="Ofe4joqdZ_SqyxlnEofb-26" edge="1">
          <mxGeometry relative="1" as="geometry">
            <mxPoint x="360" y="680" as="targetPoint" />
          </mxGeometry>
        </mxCell>
        <mxCell id="Ofe4joqdZ_SqyxlnEofb-26" value="n不是素数" style="rounded=0;whiteSpace=wrap;html=1;fillColor=none;" parent="WIyWlLk6GJQsqaUBKTNV-1" vertex="1">
          <mxGeometry x="374" y="600" width="120" height="30" as="geometry" />
        </mxCell>
        <mxCell id="Ofe4joqdZ_SqyxlnEofb-30" style="edgeStyle=orthogonalEdgeStyle;rounded=0;orthogonalLoop=1;jettySize=auto;html=1;exitX=0.5;exitY=1;exitDx=0;exitDy=0;" parent="WIyWlLk6GJQsqaUBKTNV-1" source="Ofe4joqdZ_SqyxlnEofb-27" edge="1">
          <mxGeometry relative="1" as="geometry">
            <mxPoint x="360" y="680" as="targetPoint" />
          </mxGeometry>
        </mxCell>
        <mxCell id="Ofe4joqdZ_SqyxlnEofb-27" value="n是素数" style="rounded=0;whiteSpace=wrap;html=1;fillColor=none;" parent="WIyWlLk6GJQsqaUBKTNV-1" vertex="1">
          <mxGeometry x="220" y="600" width="120" height="30" as="geometry" />
        </mxCell>
        <mxCell id="Ofe4joqdZ_SqyxlnEofb-28" value="假" style="text;html=1;strokeColor=none;fillColor=none;align=center;verticalAlign=middle;whiteSpace=wrap;rounded=0;" parent="WIyWlLk6GJQsqaUBKTNV-1" vertex="1">
          <mxGeometry x="384" y="530" width="60" height="30" as="geometry" />
        </mxCell>
        <mxCell id="Ofe4joqdZ_SqyxlnEofb-29" value="真" style="text;html=1;strokeColor=none;fillColor=none;align=center;verticalAlign=middle;whiteSpace=wrap;rounded=0;" parent="WIyWlLk6GJQsqaUBKTNV-1" vertex="1">
          <mxGeometry x="270" y="530" width="60" height="30" as="geometry" />
        </mxCell>
        <mxCell id="Ofe4joqdZ_SqyxlnEofb-34" value="&lt;b&gt;&lt;font style=&quot;font-size: 18px;&quot;&gt;循环结构&lt;/font&gt;&lt;/b&gt;" style="text;html=1;strokeColor=none;fillColor=none;align=center;verticalAlign=middle;whiteSpace=wrap;rounded=0;" parent="WIyWlLk6GJQsqaUBKTNV-1" vertex="1">
          <mxGeometry x="530" y="330" width="10" height="30" as="geometry" />
        </mxCell>
        <mxCell id="Ofe4joqdZ_SqyxlnEofb-35" value="&lt;font style=&quot;font-size: 17px;&quot;&gt;&lt;b&gt;分支结构&lt;/b&gt;&lt;/font&gt;" style="text;html=1;strokeColor=none;fillColor=none;align=center;verticalAlign=middle;whiteSpace=wrap;rounded=0;" parent="WIyWlLk6GJQsqaUBKTNV-1" vertex="1">
          <mxGeometry x="512" y="585" width="10" height="30" as="geometry" />
        </mxCell>
        <mxCell id="Ofe4joqdZ_SqyxlnEofb-32" value="" style="rounded=1;whiteSpace=wrap;html=1;strokeWidth=2;fillWeight=4;hachureGap=8;hachureAngle=45;fillColor=#f8cecc;sketch=1;opacity=10;strokeColor=#b85450;" parent="WIyWlLk6GJQsqaUBKTNV-1" vertex="1">
          <mxGeometry x="166" y="280" width="356" height="230" as="geometry" />
        </mxCell>
        <mxCell id="Ofe4joqdZ_SqyxlnEofb-33" value="" style="rounded=1;whiteSpace=wrap;html=1;strokeWidth=2;fillWeight=4;hachureGap=8;hachureAngle=45;fillColor=#1ba1e2;sketch=1;opacity=10;" parent="WIyWlLk6GJQsqaUBKTNV-1" vertex="1">
          <mxGeometry x="210" y="525" width="290" height="165" as="geometry" />
        </mxCell>
      </root>
    </mxGraphModel>
  </diagram>
</mxfile>
